<?xml version="1.0" encoding="UTF-8"?>
<!DOCTYPE svg PUBLIC "-//W3C//DTD SVG 1.1//EN" "http://www.w3.org/Graphics/SVG/1.1/DTD/svg11.dtd">
<svg xmlns="http://www.w3.org/2000/svg" version="1.1" width="264px" height="264px" style="shape-rendering:geometricPrecision; text-rendering:geometricPrecision; image-rendering:optimizeQuality; fill-rule:evenodd; clip-rule:evenodd" xmlns:xlink="http://www.w3.org/1999/xlink">
<g><path style="opacity:0.991" fill="#0074fe" d="M 97.5,-0.5 C 120.833,-0.5 144.167,-0.5 167.5,-0.5C 184.713,1.04137 201.38,5.20804 217.5,12C 238.647,24.4 252.48,42.5667 259,66.5C 260.303,74.3389 261.803,82.0056 263.5,89.5C 263.5,117.5 263.5,145.5 263.5,173.5C 261.362,185.229 258.529,196.896 255,208.5C 243.17,236.317 222.336,253.151 192.5,259C 181.049,260.756 169.716,262.256 158.5,263.5C 141.5,263.5 124.5,263.5 107.5,263.5C 90.6934,262.215 74.0267,259.382 57.5,255C 27.8754,242.717 10.0421,220.883 4,189.5C -0.666667,150.833 -0.666667,112.167 4,73.5C 11.4195,36.7473 33.2528,13.5806 69.5,4C 78.9865,2.53036 88.3198,1.03036 97.5,-0.5 Z M 108.5,33.5 C 116.955,42.4744 124.122,52.4744 130,63.5C 147.456,97.8756 153.123,134.209 147,172.5C 145.233,179.074 143.4,185.574 141.5,192C 117.787,192.462 94.12,193.462 70.5,195C 111.494,148.174 124.161,94.3404 108.5,33.5 Z M 151.5,103.5 C 173.428,129.981 183.094,160.647 180.5,195.5C 170.493,194.621 160.493,193.621 150.5,192.5C 158.004,162.921 158.338,133.255 151.5,103.5 Z M 95.5,200.5 C 123.619,199.622 151.619,200.955 179.5,204.5C 173.854,211.321 166.854,216.154 158.5,219C 136.167,225 113.833,225 91.5,219C 84.0199,216.188 77.5199,212.021 72,206.5C 71.51,205.207 71.3433,203.873 71.5,202.5C 79.7008,202.483 87.7008,201.817 95.5,200.5 Z"/></g>
</svg>
